<svg id="fvp-logo" data-name="fvp-logo" xmlns="http://www.w3.org/2000/svg" viewBox="0 0 420 120"><title>Fresh Victory Photography</title><path d="M51.3,81.49,23.36,53.14a5.9,5.9,0,0,1,.06-8.35l4.11-4L51.42,65a11.68,11.68,0,0,1-.12,16.52Z"/><path d="M24.17,54l-3-3a8.19,8.19,0,0,1,0-11.43L50.82,8.92a11.7,11.7,0,0,1,0,16.52L27.5,49A15.26,15.26,0,0,0,24.17,54Z"/><path d="M91.87,59.7A26.66,26.66,0,0,1,84,78.7L51.62,111.08,19.24,78.7a26.7,26.7,0,0,1-7.87-19,27.14,27.14,0,0,1,.44-4.87l27.07,27L51.62,94.56,75.74,70.44a15.21,15.21,0,0,0,0-21.48L59.28,33.19l-.08-.08.09-.09c4.14-4.37,11.38-4.61,14.85-1.24L84,40.7A26.66,26.66,0,0,1,91.87,59.7Z"/><path d="M43.19,64.83l-8.27-8.26L50.76,40.74h0a11.68,11.68,0,0,1,0,16.52Z"/><path d="M105.57,113.56c-.22-8.93-.33-17.86-.41-26.78q-.27-26.77,0-53.56c.08-8.92.19-17.85.41-26.78.22,8.93.34,17.86.41,26.78q.27,26.78,0,53.56C105.9,95.7,105.79,104.63,105.57,113.56Z"/><path d="M120.75,56.85v-42h14.42v5.56h-8V31.58h7.44v5.59h-7.44V56.85Z"/><path d="M150.66,37.12l-2-.1V56.85h-6.39v-42h10.57a7.67,7.67,0,0,1,4.91,1.33,6.32,6.32,0,0,1,2.14,3.7,30.52,30.52,0,0,1,.51,6.2,16.29,16.29,0,0,1-.81,5.84,4.52,4.52,0,0,1-3,2.69,3.9,3.9,0,0,1,3,2.94c.58,1.7.86,5.24.86,10.63s.08,8.28.24,8.67h-6.39Q154,56.39,154,41.8a7,7,0,0,0-.67-3.71A3.27,3.27,0,0,0,150.66,37.12Zm-2-5.06h2.56a2.54,2.54,0,0,0,1.8-.55,3.26,3.26,0,0,0,.81-1.88,26.8,26.8,0,0,0,.23-4.08v-.27a10.85,10.85,0,0,0-.58-4.46q-.57-1-2.64-1.05h-2.18Z"/><path d="M168.76,56.85v-42h14.08v5.52h-7.68V32.58h7.3V38h-7.3V51.34h8v5.51Z"/><path d="M189.84,45V41.29h6.06v4.23a14.08,14.08,0,0,0,.6,4.93,2.22,2.22,0,0,0,2.24,1.42,2.14,2.14,0,0,0,2.18-1.17,9.83,9.83,0,0,0,.54-3.82,10.55,10.55,0,0,0-1-4.62,16.79,16.79,0,0,0-3-4.12L194.37,35a19.17,19.17,0,0,1-3.37-4.7,12.48,12.48,0,0,1-1.21-5.64q0-5.19,2-7.73c1.33-1.68,3.63-2.53,6.89-2.53s5.47,1,6.63,3,1.73,4.83,1.73,8.6v2.6h-5.9v-3a13,13,0,0,0-.52-4.38,2,2,0,0,0-2-1.33,2.39,2.39,0,0,0-2.15,1,5.5,5.5,0,0,0-.65,3,6.6,6.6,0,0,0,.66,3.2,17.74,17.74,0,0,0,2.41,3.06l3.46,3.74a21.83,21.83,0,0,1,3.93,5.71,14.93,14.93,0,0,1,1.32,6.29c0,3.93-.66,6.84-2,8.71s-3.63,2.82-6.93,2.82-5.6-1-6.89-3.14S189.84,49.05,189.84,45Z"/><path d="M214.72,56.85v-42h6.39v17h5.73v-17h6.39v42h-6.39V37.33h-5.73V56.85Z"/><path d="M257.88,56.85l-6.52-42h6.09l2.74,19,1.7,13.36h.16l1.46-13.36,2.29-19h6l-6,42Z"/><path d="M278.91,56.85v-42h6.4v42Z"/><path d="M309.85,54.41q-2.18,2.93-6.83,2.92t-6.95-3.11q-2.31-3.12-2.31-9V27q0-9.37,4.92-11.71a10.08,10.08,0,0,1,4.39-.86q8.85,0,8.85,11.17v5.77h-6.18V26a13.8,13.8,0,0,0-.55-4.64,2.09,2.09,0,0,0-2.14-1.4,2.23,2.23,0,0,0-2.22,1.48,12.32,12.32,0,0,0-.62,4.54V45.54a14,14,0,0,0,.59,4.85,2.35,2.35,0,0,0,4.35,0,14.47,14.47,0,0,0,.59-4.89v-6H312V45.4C312,49.46,311.29,52.46,309.85,54.41Z"/><path d="M321.81,56.85V20.39H316.9V14.85h16v5.54h-4.73V56.85Z"/><path d="M354.73,54.3q-2.21,3-7,3t-7.09-3q-2.25-3-2.25-9.18V25.9q0-11.55,9.42-11.55c3.25,0,5.58,1,7,2.94s2.13,4.83,2.13,8.61V45.11Q356.92,51.28,354.73,54.3Zm-9.37-4a2.53,2.53,0,0,0,4.6,0,16.79,16.79,0,0,0,.54-5.12V25.62a12.28,12.28,0,0,0-.56-4.36,2.14,2.14,0,0,0-2.19-1.37,2.33,2.33,0,0,0-2.29,1.37,10.6,10.6,0,0,0-.66,4.33V45.18A16.32,16.32,0,0,0,345.36,50.34Z"/><path d="M373.61,37.12l-2.05-.1V56.85h-6.39v-42h10.57a7.67,7.67,0,0,1,4.91,1.33,6.32,6.32,0,0,1,2.14,3.7,30.52,30.52,0,0,1,.51,6.2,16.29,16.29,0,0,1-.81,5.84,4.52,4.52,0,0,1-3,2.69,3.9,3.9,0,0,1,3,2.94c.58,1.7.86,5.24.86,10.63s.08,8.28.24,8.67h-6.39Q377,56.39,377,41.8a7,7,0,0,0-.67-3.71A3.27,3.27,0,0,0,373.61,37.12Zm-2-5.06h2.56a2.54,2.54,0,0,0,1.8-.55,3.26,3.26,0,0,0,.81-1.88,26.8,26.8,0,0,0,.23-4.08v-.27a10.85,10.85,0,0,0-.58-4.46q-.57-1-2.64-1.05h-2.18Z"/><path d="M395.53,56.85V40.08l-7-25.23h6.11l4.15,15.71h.1l3.69-15.71h6.09l-6.71,25.23V56.85Z"/><path d="M120.75,105.17v-42h9.64c3.26,0,5.5,1,6.7,3S138.92,71.08,139,75v.88q0,6.26-1.77,9.48t-6.6,3.24h-3.46v16.56Zm6.4-21.84h2.19A2.52,2.52,0,0,0,132,81.77a18.92,18.92,0,0,0,.61-6V75a16.22,16.22,0,0,0-.66-5.32,2.46,2.46,0,0,0-2.54-1.6h-2.24Z"/><path d="M147.79,105.17v-42h6.4v17h5.72v-17h6.4v42h-6.4V85.65h-5.72v19.52Z"/><path d="M192.36,102.62q-2.19,3-7,3t-7.08-3.05q-2.26-3-2.26-9.17V74.22q0-11.55,9.43-11.55c3.24,0,5.58,1,7,2.93s2.14,4.83,2.14,8.62V93.43C194.56,97.53,193.83,100.6,192.36,102.62Zm-9.36-4a2.52,2.52,0,0,0,4.59,0,16.44,16.44,0,0,0,.55-5.12V73.93a12.41,12.41,0,0,0-.56-4.35,2.15,2.15,0,0,0-2.2-1.37,2.32,2.32,0,0,0-2.29,1.37,10.6,10.6,0,0,0-.65,4.33V93.5A16,16,0,0,0,183,98.65Z"/><path d="M206.41,105.17V68.71H201.5V63.17h16v5.54h-4.72v36.46Z"/><path d="M240.8,102.62q-2.2,3-7,3c-3.22,0-5.59-1-7.09-3.05s-2.25-5.08-2.25-9.17V74.22q0-11.55,9.42-11.55c3.25,0,5.58,1,7,2.93S243,70.43,243,74.22V93.43C243,97.53,242.26,100.6,240.8,102.62Zm-9.37-4a2.52,2.52,0,0,0,4.59,0,16.44,16.44,0,0,0,.55-5.12V73.93a12.18,12.18,0,0,0-.56-4.35,2.13,2.13,0,0,0-2.19-1.37,2.31,2.31,0,0,0-2.29,1.37,10.57,10.57,0,0,0-.66,4.33V93.5A16.24,16.24,0,0,0,231.43,98.65Z"/><path d="M260.6,105.6a7.18,7.18,0,0,1-6.19-3.12q-2.24-3.11-2.24-9.6V74.62q0-5.82,2.28-8.87t7.25-3.06q6.18,0,7.85,4.61a22.86,22.86,0,0,1,1,7.56v3h-6V73.46a9.68,9.68,0,0,0-.6-4.06,2.35,2.35,0,0,0-2.3-1.17,2.42,2.42,0,0,0-2.37,1.4,12.32,12.32,0,0,0-.69,5v18.2a18.06,18.06,0,0,0,.62,5.76,2.36,2.36,0,0,0,2.42,1.62,2.6,2.6,0,0,0,2.55-1.74,16.25,16.25,0,0,0,.76-5.87V86.89h-3.23V82.24h8.81v22.93h-2.86l-1-4.13a5.54,5.54,0,0,1-2.2,3.34A6.54,6.54,0,0,1,260.6,105.6Z"/><path d="M288.92,85.43l-2.05-.09v19.83h-6.4v-42H291A7.69,7.69,0,0,1,296,64.49a6.4,6.4,0,0,1,2.14,3.7,30.63,30.63,0,0,1,.51,6.21,16.23,16.23,0,0,1-.81,5.83,4.53,4.53,0,0,1-3,2.7,3.88,3.88,0,0,1,3,2.93q.85,2.56.86,10.63t.24,8.68h-6.4q-.24-.48-.24-15.06a7,7,0,0,0-.66-3.71A3.33,3.33,0,0,0,288.92,85.43Zm-2-5.05h2.55a2.59,2.59,0,0,0,1.81-.55,3.33,3.33,0,0,0,.81-1.89,27,27,0,0,0,.22-4.08V73.6a11,11,0,0,0-.57-4.46c-.38-.7-1.26-1-2.65-1h-2.17Z"/><path d="M306.81,105.17l6-42h8.45l6.37,42h-6l-1-7.49h-6.77l-.91,7.49ZM320,92.55l-2.81-21.1h-.1l-2.57,21.1Z"/><path d="M335.92,105.17v-42h9.64q4.89,0,6.69,3t1.9,8.87v.88q0,6.26-1.78,9.48t-6.59,3.24h-3.46v16.56Zm6.4-21.84h2.19a2.53,2.53,0,0,0,2.64-1.56,19.24,19.24,0,0,0,.61-6V75a16.22,16.22,0,0,0-.66-5.32,2.46,2.46,0,0,0-2.54-1.6h-2.24Z"/><path d="M362.36,105.17v-42h6.39v17h5.73v-17h6.39v42h-6.39V85.65h-5.73v19.52Z"/><path d="M395.53,105.17V88.39l-7-25.22h6.11l4.15,15.7h.1l3.69-15.7h6.09l-6.71,25.22v16.78Z"/></svg>