<svg id="logo-abdiemes-icon" data-name="Logo Icon Abdi MS" xmlns="http://www.w3.org/2000/svg" viewBox="0 0 75 75"><defs><style>.cls-1{fill:#fff;}</style></defs><title>Logo Icon Abdi MS</title><path class="cls-1" d="M67.12,36.38l-2.3.79c.11-3.57,1.07-9.91,1.69-15.69S59.27,10.62,56,17.77c-6.51,14.3-13.31,20.89-20,25.86-6.29,4.69-14.91,8.46-21.33,2-4.85-4.89-3.25-11.73,1.43-16.13,6-5.66,14.51-5.33,19.62.76,3.93,4.69,8.51.23,6.32-4.74-4-8.91-16.3-13.08-26-9.17A24.8,24.8,0,0,0,.84,34.75C-.93,44.39,4.28,53.71,13,58.11c9,4.58,19.85.91,27.32-3.79a67.62,67.62,0,0,0,12.41-10c.07.64.14,1.25.24,1.83.54,3.28,3.56,5.77,7.21,4.52l2.27-.77-.65,5.82c-.94,5.75,4.63,6.77,6.48,2.16,1.1-2.73,4-9.68,5.84-15.06S71.48,34.89,67.12,36.38Z"/></svg>